<?xml version="1.0" encoding="UTF-8"?>
<!-- Generated by Pixelmator Pro 3.3.8 -->
<svg width="256" height="256" viewBox="0 0 256 256" xmlns="http://www.w3.org/2000/svg">
    <path id="PB" fill="#2b2b2b" fill-rule="evenodd" stroke="none" d="M 190.973495 122.539001 C 206.325577 122.539001 214.001495 127.420624 214.001495 137.18399 C 214.001495 141.762695 212.95784 145.651154 210.870499 148.849503 C 208.783157 152.047852 205.046188 154.539154 199.6595 156.323502 C 194.272812 158.107849 186.798874 159 177.237503 159 L 131.787506 159 C 132.326172 145.937271 132.595505 133.7164 132.595505 122.337006 C 132.595505 110.957611 132.326172 98.736725 131.787506 85.673996 L 155.522507 85.673996 L 155.522507 85.774994 L 177.035507 85.774994 C 185.384872 85.774994 191.966644 86.465164 196.781006 87.845505 C 201.595352 89.225845 204.995651 91.228989 206.981995 93.854996 C 208.968338 96.481018 209.961502 99.81398 209.961502 103.854004 C 209.961502 107.961349 208.530685 111.614151 205.669006 114.8125 C 202.807312 118.010849 197.908875 120.586319 190.973495 122.539001 Z M 155.522507 104.156998 L 155.522507 113.550003 L 174.914505 113.550003 C 179.089188 113.550003 182.001328 113.179672 183.651001 112.438995 C 185.300674 111.698334 186.125504 110.351669 186.125504 108.399002 C 186.125504 106.850327 185.267014 105.756165 183.550003 105.116501 C 181.832993 104.476837 178.954514 104.156998 174.914505 104.156998 Z M 174.914505 140.516998 C 178.415848 140.516998 181.092331 140.365509 182.944 140.0625 C 184.79567 139.759491 186.125504 139.22084 186.933502 138.446503 C 187.741501 137.672165 188.145493 136.611664 188.145493 135.264999 C 188.145493 133.514328 187.186005 132.251831 185.266998 131.477509 C 183.347992 130.703156 179.897186 130.31601 174.914505 130.31601 L 155.522507 130.31601 L 155.522507 140.516998 Z M 87.852501 85.774994 C 101.2519 85.774994 110.577477 88.148483 115.829498 92.895493 C 121.081528 97.642517 123.707497 104.325287 123.707497 112.944 C 123.707497 118.86937 122.663841 123.902481 120.5765 128.043503 C 118.489159 132.184509 114.819527 135.416489 109.567497 137.739502 C 104.315475 140.062515 97.077209 141.223999 87.852501 141.223999 L 66.844498 141.223999 L 66.844498 159 L 41.998501 159 C 42.53717 145.937271 42.806499 133.7164 42.806499 122.337006 C 42.806499 110.957611 42.53717 98.736725 41.998501 85.673996 L 66.844498 85.673996 L 66.844498 85.774994 Z M 80.782501 121.731003 C 86.371193 121.731003 90.562653 121.512161 93.357002 121.074493 C 96.151344 120.636826 98.103996 119.845673 99.214996 118.701004 C 100.326004 117.55632 100.8815 115.873016 100.8815 113.651001 C 100.8815 111.428986 100.359673 109.762512 99.316002 108.651505 C 98.272331 107.540497 96.353348 106.783005 93.558998 106.378998 C 90.764656 105.974991 86.505859 105.772995 80.782501 105.772995 L 66.844498 105.772995 L 66.844498 121.731003 Z"/>
</svg>
