<svg width="46" height="46" viewBox="0 0 46 46" fill="none" xmlns="http://www.w3.org/2000/svg">
<path d="M19.167 24.9167C19.9901 26.0171 21.0403 26.9276 22.2462 27.5865C23.4522 28.2454 24.7857 28.6372 26.1564 28.7353C27.5271 28.8335 28.9029 28.6357 30.1904 28.1554C31.4779 27.6751 32.6471 26.9236 33.6187 25.9517L39.3687 20.2017C41.1143 18.3942 42.0803 15.9735 42.0585 13.4608C42.0366 10.948 41.0288 8.54441 39.2519 6.76759C37.4751 4.99076 35.0715 3.98289 32.5588 3.96106C30.046 3.93922 27.6253 4.90517 25.8178 6.65085L22.5212 9.92835" stroke="#7639DA" stroke-width="5" stroke-linecap="round" stroke-linejoin="round"/>
<path d="M26.8332 21.0836C26.0101 19.9832 24.96 19.0727 23.754 18.4138C22.5481 17.7549 21.2145 17.3631 19.8438 17.265C18.4731 17.1668 17.0974 17.3646 15.8098 17.8449C14.5223 18.3251 13.3531 19.0767 12.3816 20.0486L6.63156 25.7986C4.88588 27.606 3.91993 30.0268 3.94177 32.5395C3.9636 35.0523 4.97147 37.4559 6.7483 39.2327C8.52513 41.0095 10.9287 42.0174 13.4415 42.0392C15.9542 42.0611 18.375 41.0951 20.1824 39.3494L23.4599 36.0719" stroke="#7639DA" stroke-width="5" stroke-linecap="round" stroke-linejoin="round"/>
</svg>
