<svg width="38" height="39" viewBox="0 0 38 39" fill="none" xmlns="http://www.w3.org/2000/svg">
<path d="M19 0.227539C13.9609 0.227539 9.12816 2.22932 5.56497 5.79251C2.00178 9.3557 4.40533e-07 14.1884 0 19.2275C-4.40533e-07 24.2667 2.00178 29.0994 5.56497 32.6626C9.12816 36.2258 13.9609 38.2275 19 38.2275L19 19.2275L19 0.227539Z" fill="#6498DD"/>
<path d="M19 38.2275C24.0391 38.2275 28.8718 36.2258 32.435 32.6626C35.9982 29.0994 38 24.2667 38 19.2275C38 14.1884 35.9982 9.35571 32.435 5.79251C28.8718 2.22932 24.0391 0.227542 19 0.227541L19 19.2275L19 38.2275Z" fill="#B8B1FF"/>
</svg>
