<svg width="50" height="46" viewBox="0 0 50 46" fill="none" xmlns="http://www.w3.org/2000/svg">
<path d="M33.667 40.25V36.4167C33.667 34.3833 32.8593 32.4333 31.4215 30.9955C29.9837 29.5577 28.0337 28.75 26.0003 28.75H12.5837C10.5503 28.75 8.60029 29.5577 7.16251 30.9955C5.72473 32.4333 4.91699 34.3833 4.91699 36.4167V40.25" stroke="#7639DA" stroke-width="5" stroke-linecap="round" stroke-linejoin="round"/>
<path d="M41.333 15.3335V26.8335" stroke="#7639DA" stroke-width="5" stroke-linecap="round" stroke-linejoin="round"/>
<path d="M47.083 21.0835H35.583" stroke="#7639DA" stroke-width="5" stroke-linecap="round" stroke-linejoin="round"/>
<path d="M19.2917 21.0833C23.5258 21.0833 26.9583 17.6509 26.9583 13.4167C26.9583 9.18248 23.5258 5.75 19.2917 5.75C15.0575 5.75 11.625 9.18248 11.625 13.4167C11.625 17.6509 15.0575 21.0833 19.2917 21.0833Z" stroke="#7639DA" stroke-width="5" stroke-linecap="round" stroke-linejoin="round"/>
</svg>
